<svg width="460" height="120" viewBox="0 0 460 120" fill="none" xmlns="http://www.w3.org/2000/svg">
<path d="M1.52297 29.0956V3.24302e-05H11.3541C13.6272 3.24302e-05 15.493 0.388353 16.9516 1.16499C18.4102 1.93216 19.4899 2.9882 20.1908 4.33312C20.8916 5.67803 21.2421 7.20764 21.2421 8.92193C21.2421 10.6362 20.8916 12.1564 20.1908 13.4823C19.4899 14.8083 18.4149 15.8501 16.9658 16.6078C15.5167 17.3561 13.6651 17.7302 11.4109 17.7302H3.4551V14.5478H11.2973C12.8506 14.5478 14.1008 14.3205 15.0479 13.8659C16.0045 13.4113 16.6959 12.7672 17.1221 11.9338C17.5578 11.0908 17.7756 10.0869 17.7756 8.92193C17.7756 7.75697 17.5578 6.73881 17.1221 5.86746C16.6864 4.9961 15.9903 4.32365 15.0337 3.85009C14.0771 3.36705 12.8127 3.12554 11.2404 3.12554H5.04627V29.0956H1.52297ZM15.2184 16.0253L22.3786 29.0956H18.287L11.2404 16.0253H15.2184ZM35.5732 29.5503C33.4706 29.5503 31.6569 29.0862 30.132 28.158C28.6166 27.2203 27.4469 25.9133 26.6229 24.2369C25.8084 22.551 25.4011 20.5905 25.4011 18.3553C25.4011 16.1201 25.8084 14.15 26.6229 12.4452C27.4469 10.7309 28.5929 9.39549 30.061 8.43889C31.5385 7.47283 33.2622 6.9898 35.2322 6.9898C36.3688 6.9898 37.4911 7.17922 38.5993 7.55807C39.7074 7.93692 40.7161 8.55255 41.6253 9.40496C42.5346 10.2479 43.2591 11.3655 43.799 12.7578C44.3388 14.15 44.6088 15.8643 44.6088 17.9006V19.3213H27.7879V16.4231H41.1991C41.1991 15.1919 40.9529 14.0932 40.4604 13.1272C39.9773 12.1611 39.2859 11.3987 38.3862 10.8399C37.4959 10.281 36.4446 10.0016 35.2322 10.0016C33.8968 10.0016 32.7413 10.3331 31.7658 10.9961C30.7997 11.6496 30.0562 12.502 29.5353 13.5534C29.0144 14.6047 28.7539 15.7317 28.7539 16.9346V18.8667C28.7539 20.5147 29.0381 21.9117 29.6063 23.0577C30.1841 24.1943 30.9844 25.0609 32.0073 25.6576C33.0302 26.2448 34.2188 26.5384 35.5732 26.5384C36.454 26.5384 37.2496 26.4153 37.96 26.169C38.6798 25.9133 39.3001 25.5345 39.8211 25.0325C40.342 24.521 40.7445 23.8865 41.0286 23.1288L44.2678 24.038C43.9268 25.1367 43.3538 26.1027 42.5488 26.9362C41.7437 27.7602 40.7492 28.4042 39.5653 28.8683C38.3814 29.3229 37.0507 29.5503 35.5732 29.5503ZM58.5741 29.5503C56.5283 29.5503 54.7666 29.0672 53.2891 28.1012C51.8116 27.1351 50.6751 25.8044 49.8795 24.109C49.0839 22.4137 48.6861 20.4768 48.6861 18.2984C48.6861 16.0822 49.0934 14.1264 49.9079 12.431C50.7319 10.7262 51.8779 9.39549 53.346 8.43889C54.8235 7.47283 56.5472 6.9898 58.5173 6.9898C60.0516 6.9898 61.4344 7.27393 62.6657 7.84221C63.8969 8.41048 64.9056 9.20606 65.6917 10.229C66.4778 11.2518 66.9656 12.4452 67.155 13.8091H63.8022C63.5465 12.8146 62.9782 11.9338 62.0974 11.1666C61.226 10.39 60.0516 10.0016 58.5741 10.0016C57.2671 10.0016 56.121 10.3426 55.136 11.0245C54.1605 11.697 53.3981 12.6489 52.8487 13.8801C52.3089 15.1019 52.0389 16.5368 52.0389 18.1848C52.0389 19.8707 52.3041 21.3387 52.8345 22.5889C53.3744 23.8391 54.1321 24.8099 55.1076 25.5013C56.0926 26.1927 57.2481 26.5384 58.5741 26.5384C59.4454 26.5384 60.2363 26.3869 60.9466 26.0838C61.657 25.7807 62.2584 25.345 62.7509 24.7768C63.2434 24.2085 63.5938 23.5266 63.8022 22.731H67.155C66.9656 24.0191 66.4968 25.1793 65.7485 26.2116C65.0098 27.2345 64.0295 28.0491 62.8077 28.6552C61.5954 29.2519 60.1842 29.5503 58.5741 29.5503ZM81.2056 29.5503C79.103 29.5503 77.2892 29.0862 75.7644 28.158C74.249 27.2203 73.0793 25.9133 72.2553 24.2369C71.4407 22.551 71.0335 20.5905 71.0335 18.3553C71.0335 16.1201 71.4407 14.15 72.2553 12.4452C73.0793 10.7309 74.2253 9.39549 75.6933 8.43889C77.1708 7.47283 78.8946 6.9898 80.8646 6.9898C82.0012 6.9898 83.1235 7.17922 84.2316 7.55807C85.3398 7.93692 86.3484 8.55255 87.2577 9.40496C88.1669 10.2479 88.8915 11.3655 89.4313 12.7578C89.9712 14.15 90.2411 15.8643 90.2411 17.9006V19.3213H73.4202V16.4231H86.8315C86.8315 15.1919 86.5852 14.0932 86.0927 13.1272C85.6097 12.1611 84.9183 11.3987 84.0185 10.8399C83.1282 10.281 82.0769 10.0016 80.8646 10.0016C79.5292 10.0016 78.3737 10.3331 77.3981 10.9961C76.4321 11.6496 75.6886 12.502 75.1677 13.5534C74.6468 14.6047 74.3863 15.7317 74.3863 16.9346V18.8667C74.3863 20.5147 74.6704 21.9117 75.2387 23.0577C75.8164 24.1943 76.6168 25.0609 77.6397 25.6576C78.6626 26.2448 79.8512 26.5384 81.2056 26.5384C82.0864 26.5384 82.882 26.4153 83.5923 26.169C84.3121 25.9133 84.9325 25.5345 85.4534 25.0325C85.9743 24.521 86.3769 23.8865 86.661 23.1288L89.9002 24.038C89.5592 25.1367 88.9862 26.1027 88.1811 26.9362C87.3761 27.7602 86.3816 28.4042 85.1977 28.8683C84.0138 29.3229 82.6831 29.5503 81.2056 29.5503ZM98.6942 15.9685V29.0956H95.3414V7.27393H98.5805V10.6836H98.8647C99.3761 9.57544 100.153 8.68515 101.195 8.01269C102.236 7.33076 103.581 6.9898 105.229 6.9898C106.707 6.9898 108 7.29288 109.108 7.89903C110.216 8.49572 111.078 9.40496 111.693 10.6267C112.309 11.8391 112.617 13.3734 112.617 15.2298V29.0956H109.264V15.4571C109.264 13.7428 108.819 12.4073 107.929 11.4507C107.038 10.4847 105.817 10.0016 104.263 10.0016C103.193 10.0016 102.236 10.2337 101.393 10.6978C100.56 11.1619 99.9018 11.8391 99.4187 12.7294C98.9357 13.6197 98.6942 14.6994 98.6942 15.9685ZM128.234 7.27393V10.1153H116.925V7.27393H128.234ZM120.221 2.04582H123.574V22.8446C123.574 23.7918 123.711 24.5021 123.986 24.9757C124.27 25.4397 124.63 25.7523 125.066 25.9133C125.511 26.0648 125.98 26.1406 126.472 26.1406C126.841 26.1406 127.145 26.1217 127.381 26.0838C127.618 26.0364 127.808 25.9985 127.95 25.9701L128.632 28.982C128.404 29.0672 128.087 29.1525 127.68 29.2377C127.272 29.3324 126.756 29.3798 126.131 29.3798C125.184 29.3798 124.256 29.1761 123.347 28.7689C122.447 28.3616 121.699 27.7413 121.102 26.9078C120.515 26.0743 120.221 25.023 120.221 23.7539V2.04582ZM144.984 29.0956V3.24302e-05H155.156C157.183 3.24302e-05 158.854 0.350468 160.171 1.05134C161.487 1.74274 162.468 2.67565 163.112 3.85009C163.756 5.01505 164.078 6.30787 164.078 7.72855C164.078 8.97875 163.855 10.0111 163.41 10.8256C162.974 11.6402 162.396 12.2842 161.677 12.7578C160.966 13.2313 160.194 13.5818 159.361 13.8091V14.0932C160.251 14.15 161.146 14.4626 162.046 15.0309C162.946 15.5991 163.699 16.4137 164.305 17.4744C164.911 18.5352 165.214 19.8328 165.214 21.3671C165.214 22.8257 164.883 24.1375 164.22 25.3024C163.557 26.4674 162.51 27.3908 161.08 28.0727C159.65 28.7547 157.789 29.0956 155.497 29.0956H144.984ZM148.507 25.9701H155.497C157.798 25.9701 159.432 25.525 160.398 24.6347C161.374 23.7349 161.861 22.6457 161.861 21.3671C161.861 20.3821 161.61 19.4729 161.108 18.6394C160.606 17.7965 159.891 17.124 158.963 16.622C158.035 16.1106 156.936 15.8549 155.667 15.8549H148.507V25.9701ZM148.507 12.7862H155.042C156.103 12.7862 157.059 12.5778 157.912 12.1611C158.774 11.7444 159.456 11.1571 159.958 10.3994C160.469 9.64174 160.725 8.75144 160.725 7.72855C160.725 6.44994 160.28 5.36548 159.389 4.47519C158.499 3.57542 157.088 3.12554 155.156 3.12554H148.507V12.7862ZM173.902 3.24302e-05V29.0956H170.549V3.24302e-05H173.902ZM188.908 29.5503C186.938 29.5503 185.209 29.0814 183.722 28.1438C182.245 27.2061 181.089 25.8944 180.256 24.2085C179.432 22.5226 179.02 20.5526 179.02 18.2984C179.02 16.0253 179.432 14.0411 180.256 12.3458C181.089 10.6504 182.245 9.33393 183.722 8.39627C185.209 7.45862 186.938 6.9898 188.908 6.9898C190.878 6.9898 192.601 7.45862 194.079 8.39627C195.566 9.33393 196.721 10.6504 197.545 12.3458C198.379 14.0411 198.796 16.0253 198.796 18.2984C198.796 20.5526 198.379 22.5226 197.545 24.2085C196.721 25.8944 195.566 27.2061 194.079 28.1438C192.601 29.0814 190.878 29.5503 188.908 29.5503ZM188.908 26.5384C190.404 26.5384 191.635 26.1548 192.601 25.3877C193.567 24.6205 194.283 23.6118 194.747 22.3616C195.211 21.1114 195.443 19.757 195.443 18.2984C195.443 16.8399 195.211 15.4808 194.747 14.2211C194.283 12.9614 193.567 11.9432 192.601 11.1666C191.635 10.39 190.404 10.0016 188.908 10.0016C187.411 10.0016 186.18 10.39 185.214 11.1666C184.248 11.9432 183.533 12.9614 183.069 14.2211C182.605 15.4808 182.372 16.8399 182.372 18.2984C182.372 19.757 182.605 21.1114 183.069 22.3616C183.533 23.6118 184.248 24.6205 185.214 25.3877C186.18 26.1548 187.411 26.5384 188.908 26.5384ZM212.722 37.7334C211.102 37.7334 209.71 37.525 208.545 37.1083C207.38 36.701 206.409 36.1612 205.633 35.4887C204.865 34.8257 204.255 34.1154 203.8 33.3577L206.471 31.4824C206.774 31.8802 207.157 32.3348 207.622 32.8462C208.086 33.3672 208.72 33.817 209.525 34.1959C210.34 34.5842 211.405 34.7784 212.722 34.7784C214.483 34.7784 215.937 34.3522 217.083 33.4998C218.229 32.6473 218.802 31.3119 218.802 29.4934V25.0609H218.518C218.272 25.4587 217.922 25.9512 217.467 26.5384C217.022 27.1162 216.378 27.6323 215.535 28.087C214.701 28.5321 213.574 28.7547 212.154 28.7547C210.392 28.7547 208.81 28.3379 207.408 27.5045C206.016 26.671 204.913 25.4587 204.098 23.8675C203.293 22.2764 202.891 20.3442 202.891 18.0711C202.891 15.8359 203.284 13.8896 204.07 12.2321C204.856 10.5652 205.95 9.2771 207.352 8.36786C208.753 7.44915 210.373 6.9898 212.21 6.9898C213.631 6.9898 214.758 7.22658 215.592 7.70014C216.435 8.16423 217.079 8.69462 217.524 9.2913C217.978 9.87852 218.329 10.3616 218.575 10.7404H218.916V7.27393H222.155V29.7207C222.155 31.596 221.729 33.1209 220.877 34.2953C220.034 35.4792 218.897 36.3459 217.467 36.8952C216.046 37.454 214.465 37.7334 212.722 37.7334ZM212.608 25.7428C213.953 25.7428 215.09 25.435 216.018 24.8194C216.946 24.2037 217.652 23.3182 218.135 22.1627C218.618 21.0072 218.859 19.6244 218.859 18.0143C218.859 16.4421 218.622 15.0545 218.149 13.8517C217.675 12.6489 216.974 11.7065 216.046 11.0245C215.118 10.3426 213.972 10.0016 212.608 10.0016C211.187 10.0016 210.004 10.3616 209.056 11.0814C208.119 11.8012 207.413 12.7672 206.94 13.9796C206.476 15.1919 206.244 16.5368 206.244 18.0143C206.244 19.5297 206.48 20.8699 206.954 22.0348C207.437 23.1903 208.147 24.0996 209.085 24.7626C210.032 25.4161 211.206 25.7428 212.608 25.7428Z" fill="black" fill-opacity="0.39"/>
<path d="M0 68.6929V59.5551H39.3473V68.6929H25.2313V106.108H14.1386V68.6929H0ZM44.8425 106.108V71.1933H55.9579V106.108H44.8425ZM50.4115 67.1245C48.8507 67.1245 47.5096 66.6093 46.3882 65.5788C45.2668 64.5332 44.7061 63.2754 44.7061 61.8055C44.7061 60.3507 45.2668 59.1081 46.3882 58.0776C47.5096 57.032 48.8507 56.5091 50.4115 56.5091C51.9876 56.5091 53.3287 57.032 54.4349 58.0776C55.5563 59.1081 56.117 60.3507 56.117 61.8055C56.117 63.2754 55.5563 64.5332 54.4349 65.5788C53.3287 66.6093 51.9876 67.1245 50.4115 67.1245ZM63.0329 119.201V71.1933H74.0347V77.1716H74.3756C74.8303 76.1108 75.4743 75.0879 76.3078 74.1029C77.1564 73.1179 78.2323 72.3147 79.5356 71.6934C80.854 71.057 82.43 70.7387 84.2636 70.7387C86.6882 70.7387 88.9537 71.3752 91.0601 72.6481C93.1817 73.921 94.8941 75.8835 96.1973 78.5354C97.5006 81.1874 98.1522 84.5667 98.1522 88.6734C98.1522 92.6286 97.5233 95.9398 96.2655 98.6069C95.0229 101.274 93.3408 103.274 91.2193 104.608C89.1129 105.941 86.7716 106.608 84.1954 106.608C82.4375 106.608 80.9146 106.32 79.6265 105.744C78.3384 105.169 77.2549 104.411 76.376 103.471C75.5122 102.532 74.8454 101.524 74.3756 100.448H74.1483V119.201H63.0329ZM73.921 88.6507C73.921 90.5298 74.1711 92.1664 74.6711 93.5606C75.1864 94.9547 75.9213 96.0383 76.876 96.8111C77.8459 97.5688 79.0052 97.9477 80.3539 97.9477C81.7177 97.9477 82.877 97.5688 83.8317 96.8111C84.7864 96.0383 85.5062 94.9547 85.9911 93.5606C86.4912 92.1664 86.7413 90.5298 86.7413 88.6507C86.7413 86.7716 86.4912 85.1426 85.9911 83.7635C85.5062 82.3845 84.7864 81.3162 83.8317 80.5585C82.8922 79.8008 81.7329 79.4219 80.3539 79.4219C78.99 79.4219 77.8307 79.7932 76.876 80.5358C75.9213 81.2783 75.1864 82.3391 74.6711 83.7181C74.1711 85.0971 73.921 86.7413 73.921 88.6507ZM134.459 81.8541L124.253 82.1269C124.147 81.3995 123.859 80.7555 123.389 80.1948C122.919 79.6189 122.306 79.1719 121.548 78.8537C120.805 78.5203 119.942 78.3536 118.957 78.3536C117.669 78.3536 116.57 78.6112 115.661 79.1264C114.767 79.6417 114.327 80.3388 114.342 81.2177C114.327 81.8996 114.6 82.4906 115.161 82.9907C115.736 83.4908 116.759 83.8924 118.229 84.1954L124.958 85.4684C128.443 86.1351 131.034 87.2414 132.732 88.7871C134.444 90.3328 135.308 92.3786 135.323 94.9244C135.308 97.3188 134.596 99.4024 133.186 101.175C131.792 102.948 129.883 104.327 127.458 105.312C125.033 106.282 122.26 106.767 119.139 106.767C114.153 106.767 110.22 105.744 107.341 103.699C104.477 101.638 102.84 98.8796 102.431 95.4245L113.41 95.1517C113.653 96.4247 114.282 97.3945 115.297 98.0613C116.312 98.7281 117.608 99.0615 119.184 99.0615C120.608 99.0615 121.768 98.7963 122.662 98.2659C123.556 97.7355 124.011 97.0308 124.026 96.1519C124.011 95.3639 123.662 94.735 122.98 94.2652C122.298 93.7803 121.23 93.4015 119.775 93.1287L113.683 91.9694C110.183 91.333 107.576 90.1585 105.864 88.4461C104.151 86.7186 103.303 84.5212 103.318 81.8541C103.303 79.5204 103.924 77.5277 105.182 75.8759C106.44 74.209 108.228 72.936 110.546 72.0571C112.865 71.1782 115.6 70.7387 118.752 70.7387C123.48 70.7387 127.208 71.7313 129.936 73.7165C132.663 75.6865 134.171 78.399 134.459 81.8541Z" fill="black"/>
<path d="M169.186 106.813C165.913 106.813 163.087 106.229 160.708 105.062C158.344 103.896 156.525 102.327 155.252 100.357C153.979 98.372 153.343 96.1671 153.343 93.7424C153.343 91.9543 153.691 90.3783 154.389 89.0144C155.101 87.6354 156.078 86.37 157.321 85.2183C158.579 84.0515 160.041 82.9073 161.708 81.786L171.482 75.5349C172.588 74.8379 173.369 74.1029 173.824 73.33C174.293 72.5572 174.528 71.7843 174.528 71.0115C174.528 70.178 174.202 69.4203 173.551 68.7384C172.914 68.0565 171.967 67.7231 170.709 67.7382C169.906 67.7382 169.209 67.9049 168.618 68.2383C168.027 68.5717 167.565 69.0187 167.232 69.5794C166.913 70.1401 166.754 70.7766 166.754 71.4888C166.754 72.4132 167.019 73.3604 167.55 74.3302C168.08 75.3001 168.792 76.3305 169.686 77.4216C170.596 78.5127 171.603 79.7174 172.71 81.0358L195.009 106.108H183.689L165.027 85.8548C163.966 84.6728 162.852 83.3468 161.685 81.8769C160.518 80.4069 159.533 78.8006 158.73 77.0579C157.927 75.3001 157.525 73.3907 157.525 71.3297C157.525 69.0112 158.071 66.9123 159.162 65.0333C160.253 63.1542 161.784 61.6615 163.754 60.5553C165.739 59.4339 168.05 58.8732 170.687 58.8732C173.232 58.8732 175.43 59.396 177.279 60.4416C179.127 61.4872 180.552 62.8738 181.552 64.6014C182.552 66.3289 183.052 68.2232 183.052 70.2841C183.052 72.4663 182.514 74.4742 181.438 76.3078C180.362 78.1263 178.839 79.7402 176.869 81.1495L167.3 87.9915C166.284 88.7189 165.489 89.4993 164.913 90.3328C164.337 91.1511 164.049 92.0452 164.049 93.015C164.049 94.0152 164.284 94.8866 164.754 95.6291C165.239 96.3716 165.921 96.9551 166.8 97.3794C167.679 97.8037 168.709 98.0158 169.891 98.0158C171.467 98.0158 173.043 97.6446 174.619 96.902C176.195 96.1443 177.635 95.0836 178.938 93.7197C180.241 92.3407 181.287 90.7116 182.075 88.8325C182.863 86.9383 183.257 84.8622 183.257 82.6043H192.213C192.213 85.3926 191.917 87.9839 191.326 90.3783C190.735 92.7574 189.849 94.8941 188.667 96.7884C187.5 98.6675 186.053 100.228 184.325 101.471C183.78 101.774 183.249 102.062 182.734 102.335C182.219 102.607 181.688 102.895 181.143 103.199C179.355 104.487 177.415 105.411 175.324 105.972C173.248 106.532 171.202 106.813 169.186 106.813Z" fill="black" fill-opacity="0.53"/>
<path d="M222.252 106.108H210.159L225.866 59.5551H240.846L256.553 106.108H244.46L233.526 71.2843H233.163L222.252 106.108ZM220.638 87.7869H245.915V96.3338H220.638V87.7869ZM261.565 106.108V71.1933H272.362V77.558H272.726C273.362 75.2546 274.4 73.5422 275.84 72.4208C277.28 71.2843 278.954 70.716 280.863 70.716C281.379 70.716 281.909 70.7539 282.455 70.8296C283 70.8903 283.508 70.9888 283.978 71.1251V80.7858C283.447 80.6039 282.75 80.46 281.886 80.3539C281.038 80.2478 280.28 80.1948 279.613 80.1948C278.295 80.1948 277.105 80.4903 276.045 81.0813C274.999 81.6571 274.173 82.4679 273.567 83.5135C272.976 84.544 272.68 85.7563 272.68 87.1505V106.108H261.565ZM309.84 71.1933V79.3765H287.813V71.1933H309.84ZM292.428 62.8284H303.543V95.129C303.543 95.8109 303.649 96.3641 303.862 96.7884C304.089 97.1975 304.415 97.493 304.839 97.6749C305.263 97.8416 305.771 97.9249 306.362 97.9249C306.786 97.9249 307.233 97.887 307.703 97.8113C308.188 97.7203 308.552 97.6446 308.794 97.584L310.476 105.608C309.946 105.76 309.196 105.949 308.226 106.176C307.271 106.404 306.127 106.548 304.793 106.608C302.187 106.729 299.952 106.426 298.088 105.699C296.239 104.956 294.822 103.805 293.837 102.244C292.867 100.683 292.398 98.7205 292.428 96.3565V62.8284ZM315.511 106.108V71.1933H326.627V106.108H315.511ZM321.08 67.1245C319.519 67.1245 318.178 66.6093 317.057 65.5788C315.935 64.5332 315.375 63.2754 315.375 61.8055C315.375 60.3507 315.935 59.1081 317.057 58.0776C318.178 57.032 319.519 56.5091 321.08 56.5091C322.656 56.5091 323.997 57.032 325.104 58.0776C326.225 59.1081 326.786 60.3507 326.786 61.8055C326.786 63.2754 326.225 64.5332 325.104 65.5788C323.997 66.6093 322.656 67.1245 321.08 67.1245ZM350 106.767C346.317 106.767 343.158 106.01 340.521 104.494C337.899 102.979 335.884 100.872 334.474 98.175C333.065 95.4624 332.36 92.3255 332.36 88.7644C332.36 85.188 333.065 82.0512 334.474 79.3537C335.899 76.6412 337.922 74.5272 340.544 73.0118C343.18 71.4964 346.325 70.7387 349.977 70.7387C353.205 70.7387 356.016 71.3221 358.41 72.489C360.82 73.6559 362.699 75.3076 364.047 77.4443C365.411 79.5659 366.131 82.0587 366.207 84.9228H355.819C355.607 83.1347 355 81.7329 354 80.7176C353.015 79.7023 351.727 79.1946 350.136 79.1946C348.848 79.1946 347.719 79.5583 346.749 80.2857C345.779 80.998 345.022 82.0587 344.476 83.468C343.946 84.8622 343.68 86.5898 343.68 88.6507C343.68 90.7116 343.946 92.4543 344.476 93.8788C345.022 95.2881 345.779 96.3565 346.749 97.0839C347.719 97.7961 348.848 98.1522 350.136 98.1522C351.167 98.1522 352.076 97.9325 352.864 97.493C353.667 97.0536 354.326 96.4095 354.841 95.5609C355.357 94.6971 355.682 93.6515 355.819 92.424H366.207C366.101 95.3033 365.381 97.8188 364.047 99.9707C362.729 102.123 360.873 103.797 358.478 104.994C356.099 106.176 353.273 106.767 350 106.767ZM383.011 59.5551V106.108H371.895V59.5551H383.011ZM406.406 106.767C402.754 106.767 399.602 106.047 396.95 104.608C394.314 103.153 392.283 101.085 390.859 98.4023C389.449 95.7049 388.745 92.4998 388.745 88.7871C388.745 85.1804 389.457 82.0284 390.881 79.331C392.306 76.6185 394.314 74.5121 396.905 73.0118C399.496 71.4964 402.55 70.7387 406.066 70.7387C408.551 70.7387 410.824 71.1251 412.885 71.898C414.946 72.6708 416.726 73.815 418.227 75.3304C419.727 76.8458 420.894 78.7173 421.727 80.9449C422.561 83.1574 422.977 85.6957 422.977 88.5598V91.333H392.632V84.8774H412.635C412.62 83.6954 412.339 82.6422 411.794 81.7178C411.248 80.7934 410.498 80.0736 409.543 79.5583C408.604 79.0279 407.52 78.7627 406.293 78.7627C405.05 78.7627 403.936 79.0431 402.951 79.6038C401.966 80.1493 401.186 80.8994 400.61 81.8541C400.034 82.7937 399.731 83.862 399.701 85.0592V91.6285C399.701 93.0529 399.981 94.3031 400.542 95.3791C401.103 96.4398 401.898 97.2657 402.929 97.8567C403.959 98.4477 405.187 98.7432 406.611 98.7432C407.596 98.7432 408.49 98.6069 409.293 98.3341C410.096 98.0613 410.786 97.6597 411.362 97.1293C411.938 96.599 412.37 95.9473 412.657 95.1745L422.864 95.47C422.439 97.7582 421.507 99.751 420.068 101.448C418.643 103.13 416.772 104.441 414.453 105.381C412.135 106.305 409.452 106.767 406.406 106.767ZM459.137 81.8541L448.93 82.1269C448.824 81.3995 448.536 80.7555 448.067 80.1948C447.597 79.6189 446.983 79.1719 446.225 78.8537C445.483 78.5203 444.619 78.3536 443.634 78.3536C442.346 78.3536 441.247 78.6112 440.338 79.1264C439.444 79.6417 439.005 80.3388 439.02 81.2177C439.005 81.8996 439.277 82.4906 439.838 82.9907C440.414 83.4908 441.437 83.8924 442.907 84.1954L449.635 85.4684C453.12 86.1351 455.712 87.2414 457.409 88.7871C459.121 90.3328 459.985 92.3786 460 94.9244C459.985 97.3188 459.273 99.4024 457.864 101.175C456.469 102.948 454.56 104.327 452.135 105.312C449.711 106.282 446.938 106.767 443.816 106.767C438.83 106.767 434.898 105.744 432.019 103.699C429.154 101.638 427.518 98.8796 427.109 95.4245L438.088 95.1517C438.33 96.4247 438.959 97.3945 439.974 98.0613C440.99 98.7281 442.285 99.0615 443.861 99.0615C445.286 99.0615 446.445 98.7963 447.339 98.2659C448.233 97.7355 448.688 97.0308 448.703 96.1519C448.688 95.3639 448.339 94.735 447.657 94.2652C446.976 93.7803 445.907 93.4015 444.452 93.1287L438.361 91.9694C434.86 91.333 432.253 90.1585 430.541 88.4461C428.829 86.7186 427.98 84.5212 427.995 81.8541C427.98 79.5204 428.601 77.5277 429.859 75.8759C431.117 74.209 432.905 72.936 435.224 72.0571C437.542 71.1782 440.277 70.7387 443.43 70.7387C448.158 70.7387 451.885 71.7313 454.613 73.7165C457.341 75.6865 458.849 78.399 459.137 81.8541Z" fill="black" fill-opacity="0.5"/>
</svg>
